<?xml version="1.0" standalone="no"?>
<!DOCTYPE svg PUBLIC "-//W3C//DTD SVG 20010904//EN"
 "http://www.w3.org/TR/2001/REC-SVG-20010904/DTD/svg10.dtd">
<svg version="1.0" xmlns="http://www.w3.org/2000/svg"
 width="856.000000pt" height="447.000000pt" viewBox="0 0 856.000000 447.000000"
 preserveAspectRatio="xMidYMid meet">

<g transform="translate(0.000000,447.000000) scale(0.100000,-0.100000)"
fill="#000000" stroke="none">
<path d="M0 2235 l0 -2235 4280 0 4280 0 0 2235 0 2235 -4280 0 -4280 0 0
-2235z m7720 2155 c0 -5 -2 -10 -4 -10 -3 0 -8 5 -11 10 -3 6 -1 10 4 10 6 0
11 -4 11 -10z m380 -1060 c8 -5 12 -11 9 -14 -3 -3 -14 1 -25 9 -21 16 -8 20
16 5z m135 -88 c-3 -3 -11 0 -18 7 -9 10 -8 11 6 5 10 -3 15 -9 12 -12z
m-6441 -153 c94 -51 205 -110 246 -132 41 -22 93 -50 115 -62 22 -12 74 -41
115 -63 155 -82 477 -256 530 -285 30 -16 116 -61 189 -99 134 -70 135 -70
199 -65 77 6 134 41 169 102 l23 40 0 -433 c0 -478 2 -462 -64 -520 -42 -37
-103 -55 -151 -46 -19 3 -164 76 -322 161 -158 85 -353 190 -433 233 -80 43
-170 91 -200 107 -351 190 -534 286 -566 294 -95 27 -207 -30 -250 -126 -6
-12 -10 141 -12 400 -2 359 0 426 13 461 28 74 99 123 179 124 44 0 70 -11
220 -91z m1473 76 c48 -20 71 -41 94 -87 17 -32 19 -60 19 -212 0 -197 -11
-247 -72 -320 -39 -47 -81 -66 -149 -66 -48 0 -75 13 -353 161 -165 88 -305
164 -309 169 -9 8 17 25 128 85 39 21 153 84 255 140 102 57 203 112 225 123
48 25 112 28 162 7z m1157 -362 c58 -21 126 -85 156 -147 33 -70 40 -143 40
-458 l0 -298 -115 0 -114 0 -3 298 c-3 278 -4 300 -24 336 -32 62 -64 80 -147
84 -60 3 -80 -1 -117 -20 -49 -25 -84 -70 -100 -127 -5 -20 -10 -155 -10 -303
l0 -268 -115 0 -116 0 3 404 c3 391 4 406 24 433 28 39 80 63 135 63 50 0 59
-10 59 -72 0 -36 9 -35 50 7 85 88 259 118 394 68z m917 -2 c168 -64 266 -205
271 -392 3 -115 22 -109 -348 -109 -193 0 -315 -4 -319 -10 -10 -16 23 -110
50 -146 44 -57 97 -78 195 -78 93 0 142 18 190 69 68 73 175 74 200 2 26 -75
-79 -184 -221 -231 -190 -63 -394 -17 -512 114 -83 92 -116 187 -117 330 0
236 124 414 326 465 80 20 212 14 285 -14z m513 -48 c58 -185 99 -323 121
-413 15 -58 29 -112 32 -120 2 -8 13 19 24 60 11 41 52 175 91 298 l72 223
115 -3 115 -3 24 -75 c64 -200 120 -391 132 -447 7 -35 16 -61 20 -58 3 2 12
30 20 62 13 59 146 499 156 514 7 13 71 11 97 -2 46 -24 76 -62 82 -103 6 -41
-7 -87 -109 -376 -15 -41 -52 -150 -84 -242 l-57 -168 -106 0 -105 0 -73 231
c-40 126 -81 262 -91 300 -10 39 -21 73 -23 76 -3 2 -8 -11 -12 -29 -4 -18
-39 -132 -77 -253 -39 -121 -77 -244 -85 -272 l-16 -53 -112 0 -113 0 -7 28
c-3 15 -55 178 -116 363 -62 192 -109 352 -109 374 0 73 64 134 142 135 35 0
37 -2 52 -47z m-3881 -695 c168 -89 307 -165 307 -168 0 -3 -147 -86 -327
-184 -300 -164 -330 -179 -377 -179 -60 -1 -121 27 -153 70 -38 52 -45 98 -41
268 3 151 5 163 31 220 34 73 60 102 112 127 79 37 108 27 448 -154z"/>
<path d="M5059 2617 c-48 -26 -94 -89 -105 -144 l-6 -33 222 0 223 0 -6 41
c-8 57 -48 113 -99 138 -63 30 -169 29 -229 -2z"/>
</g>
</svg>
